<?xml version="1.0" encoding="UTF-8"?>
<svg width="128px" height="128px" viewBox="0 0 128 128" version="1.1" xmlns="http://www.w3.org/2000/svg" xmlns:xlink="http://www.w3.org/1999/xlink">
    <!-- Generator: Sketch 49.3 (51167) - http://www.bohemiancoding.com/sketch -->
    <title>⚙️-icon-sm</title>
    <desc>Created with Sketch.</desc>
    <defs></defs>
    <g id="⚙️-icon-sm" stroke="none" stroke-width="1" fill="none" fill-rule="evenodd">
        <path d="M26.62485,115.949619 C20.6090028,111.629927 15.4966259,106.365799 11.4088325,100.456998 L20.6083952,81.5313463 L0.843920927,74.3079248 C-0.320164168,67.2178695 -0.299399051,59.8798169 1.02732924,52.5935321 L20.9209682,45.7140359 L12.0503808,26.62485 C16.3700726,20.6090028 21.6342012,15.4966259 27.5430016,11.4088325 L46.4686537,20.6083952 L53.6920752,0.843920927 C60.7821305,-0.320164168 68.1201831,-0.299399051 75.4064679,1.02732924 L82.2859641,20.9209682 L101.37515,12.0503808 C107.390997,16.3700726 112.503374,21.6342012 116.591168,27.5430016 L107.391605,46.4686537 L127.156079,53.6920752 C128.320164,60.7821305 128.299399,68.1201831 126.972671,75.4064679 L107.079032,82.2859641 L115.949619,101.37515 C111.629927,107.390997 106.365799,112.503374 100.456998,116.591168 L81.5313463,107.391605 L74.3079248,127.156079 C67.2178695,128.320164 59.8798169,128.299399 52.5935321,126.972671 L45.7140359,107.079032 L26.62485,115.949619 Z M53.428427,88.9050653 C68.2983597,95.2169772 85.4696375,88.2793307 91.7815495,73.409398 C98.0934614,58.5394653 91.1558148,41.3681874 76.2858821,35.0562755 C61.4159494,28.7443635 44.2446716,35.6820101 37.9327597,50.5519428 C31.6208477,65.4218755 38.5584943,82.5931533 53.428427,88.9050653 Z" id="cog" fill="#FFFFFF"></path>
    </g>
</svg>