<?xml version="1.0" encoding="UTF-8"?>
<svg width="128px" height="128px" viewBox="0 0 128 128" version="1.1" xmlns="http://www.w3.org/2000/svg" xmlns:xlink="http://www.w3.org/1999/xlink">
    <!-- Generator: Sketch 49.3 (51167) - http://www.bohemiancoding.com/sketch -->
    <title>โช๏ธ๐คโฏ-icon-sm</title>
    <desc>Created with Sketch.</desc>
    <defs>
        <path d="M33.875,62.229249 L33.875,62.9118052 C33.875,78.7410137 47.4743507,91.5731225 64.25,91.5731225 C81.0256493,91.5731225 94.625,78.7410137 94.625,62.9118052 L94.625,62.229249 C94.625,59.1936759 96.3125,57.6758893 99.6875,57.6758893 C103.0625,57.6758893 104.75,59.1936759 104.75,62.229249 C104.75,84.3714069 88.9353603,102.36078 69.3125,102.698717 L69.3125,117.881423 L84.5,117.881423 C87.2959415,117.881423 89.5625,120.146544 89.5625,122.940711 C89.5625,125.734879 87.2959415,128 84.5,128 L44,128 C41.2040585,128 38.9375,125.734879 38.9375,122.940711 C38.9375,120.146544 41.2040585,117.881423 44,117.881423 L59.1875,117.881423 L59.1875,102.698717 C39.5646397,102.36078 23.75,84.3714069 23.75,62.229249 C23.75,59.1936759 25.4375,57.6758893 28.8125,57.6758893 C32.1875,57.6758893 33.875,59.1936759 33.875,62.229249 Z M64.25,0 C78.2297077,0 89.5625,11.5521152 89.5625,25.8023715 L89.5625,60.2055336 C89.5625,74.4557899 78.2297077,86.0079051 64.25,86.0079051 C50.2702923,86.0079051 38.9375,74.4557899 38.9375,60.2055336 L38.9375,25.8023715 C38.9375,11.5521152 50.2702923,0 64.25,0 Z" id="path-1"></path>
    </defs>
    <g id="โช๏ธ๐คโฏ-icon-sm" stroke="none" stroke-width="1" fill="none" fill-rule="evenodd">
        <mask id="mask-2" fill="white">
            <use xlink:href="#path-1"></use>
        </mask>
        <use id="cut-out" fill="#4B4A4A" fill-rule="nonzero" xlink:href="#path-1"></use>
    </g>
</svg>