<?xml version="1.0" encoding="UTF-8"?>
<svg width="128px" height="125px" viewBox="0 0 128 125" version="1.1" xmlns="http://www.w3.org/2000/svg" xmlns:xlink="http://www.w3.org/1999/xlink">
    <!-- Generator: Sketch 49.3 (51167) - http://www.bohemiancoding.com/sketch -->
    <title>🔈-icon-sm copy_128-128</title>
    <desc>Created with Sketch.</desc>
    <defs></defs>
    <g id="🔈-icon-sm-copy" stroke="none" stroke-width="1" fill="none" fill-rule="evenodd">
        <g id="waves" transform="translate(70.500000, 6.000000)" fill="#FFFFFF">
            <path d="M18.6157213,94.9985373 L28.8027089,104.944887 C20.5360089,109.63441 10.9651268,112.367171 0.752346955,112.495284 C0.342009953,112.500431 0.00519329499,112.17196 4.58942578e-05,111.761623 C6.9243286e-06,111.758516 -1.25612108e-05,111.75541 -1.25612108e-05,111.752303 L-1.86921375e-06,99.7554379 C-1.86921374e-06,99.3396257 0.333509067,99.0006703 0.749266752,98.9939377 C7.1332763,98.8905577 13.1791938,97.4685098 18.6157213,94.9985373 Z M34.6026901,82.6556597 C40.4925053,75.3769448 44,66.2007671 44,56.25 C44,32.9490506 24.7677041,13.8953297 0.749887065,13.5060724 C0.333788927,13.4993287 7.78048709e-06,13.1600941 7.78048709e-06,12.7439413 L-1.49602486e-05,0.7432441 C-1.49602486e-05,0.335303656 0.33068611,0.00460258612 0.738626554,0.00460258612 C0.741696443,0.00460258612 0.744766303,0.0046217244 0.747835954,0.00465999986 C32.1595503,0.396332448 57.5,25.428209 57.5,56.25 C57.5,69.8827237 52.5424872,82.3827298 44.2948533,92.1188742 L34.6026901,82.6556597 Z" id="Combined-Shape"></path>
            <path d="M15.8497617,64.3457139 C17.1886576,61.925244 17.9453125,59.1669364 17.9453125,56.25 C17.9453125,47.0232185 10.3744665,39.3836249 0.75292513,39.0031381 C0.332359773,38.9865067 -1.54509379e-05,38.6407279 -1.54509379e-05,38.2198338 L5.44009282e-14,31.75 L-4.97678078e-06,26.2500057 C-5.35159277e-06,25.8357893 0.33578301,25.5000004 0.749999321,25.5 C18.1167665,25.5 31.4453125,39.2607719 31.4453125,56.25 C31.4453125,62.8480075 29.3218915,68.960845 25.7071002,73.9702019 L15.8497617,64.3457139 Z M9.09712104,85.7047858 C6.44491671,86.4876289 3.64488571,86.9370373 0.747958896,87.0031874 C0.344183895,87.0124074 0.0093852748,86.6925574 0.000165247058,86.2887824 C3.81961008e-05,86.2832185 -2.53344212e-05,86.2776532 -2.53320897e-05,86.2720878 L-1.13473152e-05,76.8225463 L9.09712104,85.7047858 Z" id="Combined-Shape"></path>
        </g>
        <path d="M22.091208,35.5572802 L62.25,74.7674393 L62.25,121.701877 C62.25,122.806447 61.3545695,123.701877 60.25,123.701877 C59.7494318,123.701877 59.2670612,123.514169 58.8981559,123.175823 L20.5735683,88.0260538 C20.204663,87.6877087 19.7222924,87.5 19.2217242,87.5 L2,87.5 C0.8954305,87.5 5.48463392e-15,86.6045695 4.4408921e-16,85.5 L5.77315973e-15,39.5 C1.71366981e-15,38.3954305 0.8954305,37.5 2,37.5 L19.2143576,37.5 C19.7193371,37.5 20.2056246,37.308976 20.5755923,36.9652781 L22.091208,35.5572802 Z M36.7614146,21.928745 L58.8887653,1.37256717 C59.698016,0.62077799 60.963489,0.667359815 61.7152781,1.47661059 C62.058976,1.84657831 62.25,2.33286579 62.25,2.83784531 L62.25,46.8152379 L36.7614146,21.928745 Z" id="Combined-Shape" fill="#FFFFFF"></path>
        <path d="M13,13 L115,112" id="Line" stroke="#FFFFFF" stroke-width="14"></path>
    </g>
</svg>