<?xml version="1.0" encoding="UTF-8"?>
<svg width="128px" height="128px" viewBox="0 0 128 128" version="1.1" xmlns="http://www.w3.org/2000/svg" xmlns:xlink="http://www.w3.org/1999/xlink">
    <!-- Generator: Sketch 49.3 (51167) - http://www.bohemiancoding.com/sketch -->
    <title>🔄-icon-sm</title>
    <desc>Created with Sketch.</desc>
    <defs></defs>
    <g id="🔄-icon-sm" stroke="none" stroke-width="1" fill="none" fill-rule="evenodd">
        <path d="M109.308497,18.745166 L116.528942,11.5282657 C117.418038,10.6396059 118.859548,10.6396059 119.748644,11.5282657 C120.100218,11.8796669 120.327035,12.336442 120.394445,12.8288098 L124.598006,43.5320642 C124.768479,44.7772147 123.896785,45.9247362 122.651023,46.0951252 C122.446198,46.1231401 122.238511,46.1231401 122.033686,46.0951252 L91.3153514,41.8936273 C90.0695893,41.7232383 89.197895,40.5757167 89.3683677,39.3305662 C89.4357775,38.8381985 89.6625946,38.3814233 90.0141684,38.0300221 L97.2346135,30.8131217 C78.8970043,12.484515 49.1658654,12.484515 30.8282562,30.8131217 C12.490647,49.1417285 12.490647,78.8582715 30.8282562,97.1868783 C49.1658654,115.515485 78.8970043,115.515485 97.2346135,97.1868783 C106.175213,88.250668 110.690959,76.7880041 110.911714,65.082246 C110.916206,64.8179874 111.088609,64.6513562 111.297769,64.6548637 C111.307191,64.6550217 116.714652,65.353671 127.520151,66.7508118 C127.805142,66.7876674 128.013816,67.0374346 127.999285,67.3242923 C127.225485,82.600858 120.983144,97.5859181 109.308497,109.254834 C84.3026659,134.248389 43.7602038,134.248389 18.7543731,109.254834 C-6.25145769,84.2612793 -6.25145769,43.7387207 18.7543731,18.745166 C43.7602038,-6.24838867 84.3026659,-6.24838867 109.308497,18.745166 Z" id="Combined-Shape" fill="#FFFFFF" fill-rule="nonzero" transform="translate(64.000000, 64.000000) scale(-1, 1) translate(-64.000000, -64.000000) "></path>
    </g>
</svg>