<?xml version="1.0" encoding="UTF-8"?>
<svg width="128px" height="125px" viewBox="0 0 128 125" version="1.1" xmlns="http://www.w3.org/2000/svg" xmlns:xlink="http://www.w3.org/1999/xlink">
    <!-- Generator: Sketch 49.3 (51167) - http://www.bohemiancoding.com/sketch -->
    <title>🔈-icon-sm</title>
    <desc>Created with Sketch.</desc>
    <defs></defs>
    <g id="🔈-icon-sm" stroke="none" stroke-width="1" fill="none" fill-rule="evenodd">
        <g id="waves" transform="translate(70.500000, 6.000000)" fill="#FFFFFF">
            <path d="M0.749266752,98.9939377 C0.749266752,98.9939377 0.749266752,98.9939377 0.749266752,98.9939377 C24.7673729,98.6049984 44,79.55115 44,56.25 C44,32.9490506 24.7677041,13.8953297 0.749887065,13.5060724 C0.749887065,13.5060724 0.749887065,13.5060724 0.749887065,13.5060724 L0.749887065,13.5060724 C0.333788927,13.4993287 7.78048717e-06,13.1600941 7.78048717e-06,12.7439413 L-1.49602485e-05,0.7432441 C-1.49602485e-05,0.335303656 0.33068611,0.00460258612 0.738626554,0.00460258612 C0.741696443,0.00460258612 0.744766303,0.0046217244 0.747835954,0.00465999986 C0.747835954,0.00465999986 0.747835954,0.00465999986 0.747835954,0.00465999986 C32.1595503,0.396332448 57.5,25.428209 57.5,56.25 C57.5,87.0703155 32.1619763,112.101271 0.752346955,112.495284 C0.752346955,112.495284 0.752346955,112.495284 0.752346955,112.495284 L0.752346955,112.495284 C0.342009953,112.500431 0.00519329499,112.17196 4.58942579e-05,111.761623 C6.92432868e-06,111.758516 -1.25612108e-05,111.75541 -1.25612108e-05,111.752303 L-1.86921366e-06,99.7554379 C-1.86921366e-06,99.3396257 0.333509067,99.0006703 0.749266752,98.9939377 Z" id="Path"></path>
            <path d="M0.748697392,73.4970286 C0.748697392,73.4970286 0.748697392,73.4970286 0.748697392,73.4970286 C10.3722487,73.1186129 17.9453125,65.4781329 17.9453125,56.25 C17.9453125,47.0232185 10.3744665,39.3836249 0.75292513,39.0031381 C0.75292513,39.0031381 0.75292513,39.0031381 0.75292513,39.0031381 L0.75292513,39.0031381 C0.332359773,38.9865067 -1.5450938e-05,38.6407279 -1.5450938e-05,38.2198338 L-1.06581402e-14,31.75 L-4.97678085e-06,26.2500057 C-5.35159283e-06,25.8357893 0.33578301,25.5000004 0.749999321,25.5 C0.749999548,25.5 0.749999774,25.5 0.75,25.5 C18.1167665,25.5 31.4453125,39.2607719 31.4453125,56.25 C31.4453125,72.9946514 17.7691981,86.6145148 0.747958896,87.0031874 C0.747958896,87.0031874 0.747958896,87.0031874 0.747958896,87.0031874 L0.747958896,87.0031874 C0.344183895,87.0124074 0.0093852748,86.6925574 0.000165247058,86.2887824 C3.81961007e-05,86.2832185 -2.53344213e-05,86.2776532 -2.53320898e-05,86.2720878 L-7.57820751e-06,74.2757523 C-7.40289039e-06,73.8572558 0.330524082,73.5134719 0.748697392,73.4970286 Z" id="Path"></path>
        </g>
        <path d="M20.5755923,36.9652781 L58.8887653,1.37256717 C59.698016,0.62077799 60.963489,0.667359815 61.7152781,1.47661059 C62.058976,1.84657831 62.25,2.33286579 62.25,2.83784531 L62.25,121.701877 C62.25,122.806447 61.3545695,123.701877 60.25,123.701877 C59.7494318,123.701877 59.2670612,123.514169 58.8981559,123.175823 L20.5735683,88.0260538 C20.204663,87.6877087 19.7222924,87.5 19.2217242,87.5 L2,87.5 C0.8954305,87.5 5.48463392e-15,86.6045695 4.4408921e-16,85.5 L5.77315973e-15,39.5 C5.63788898e-15,38.3954305 0.8954305,37.5 2,37.5 L19.2143576,37.5 C19.7193371,37.5 20.2056246,37.308976 20.5755923,36.9652781 Z" id="Combined-Shape" fill="#FFFFFF"></path>
    </g>
</svg>